<svg width="112" height="112" viewBox="0 0 112 112" fill="none" xmlns="http://www.w3.org/2000/svg">
  <path d="M20 20L38 38M20 20H34M20 20V34" stroke="#004F3F" stroke-width="4" stroke-linecap="round" stroke-linejoin="round"/>
  <path d="M92 20L74 38M92 20H78M92 20V34" stroke="#004F3F" stroke-width="4" stroke-linecap="round" stroke-linejoin="round"/>
  <path d="M20 92L38 74M20 92H34M20 92V78" stroke="#004F3F" stroke-width="4" stroke-linecap="round" stroke-linejoin="round"/>
  <path d="M92 92L74 74M92 92H78M92 92V78" stroke="#004F3F" stroke-width="4" stroke-linecap="round" stroke-linejoin="round"/>
  <path d="M56 15V34M56 15L49 22M56 15L63 22" stroke="#004F3F" stroke-width="4" stroke-linecap="round" stroke-linejoin="round"/>
  <path d="M56 97V78M56 97L49 90M56 97L63 90" stroke="#004F3F" stroke-width="4" stroke-linecap="round" stroke-linejoin="round"/>
  <path d="M15 56H34M15 56L22 49M15 56L22 63" stroke="#004F3F" stroke-width="4" stroke-linecap="round" stroke-linejoin="round"/>
  <path d="M97 56H78M97 56L90 49M97 56L90 63" stroke="#004F3F" stroke-width="4" stroke-linecap="round" stroke-linejoin="round"/>
  <path d="M56 35.5L61.7 37.4L66.3 33.4L74.6 41.7L70.6 46.3L72.5 52H79V64H72.5L70.6 69.7L74.6 74.3L66.3 82.6L61.7 78.6L56 80.5L50.3 78.6L45.7 82.6L37.4 74.3L41.4 69.7L39.5 64H33V52H39.5L41.4 46.3L37.4 41.7L45.7 33.4L50.3 37.4L56 35.5Z" stroke="#004F3F" stroke-width="4" stroke-linejoin="round"/>
  <circle cx="56" cy="58" r="12" stroke="#004F3F" stroke-width="4"/>
</svg>
