<?xml version="1.0" encoding="UTF-8"?>
<svg id="logosandtypes_com" data-name="logosandtypes com" xmlns="http://www.w3.org/2000/svg" viewBox="0 0 150 150">
  <defs>
    <style>
      .cls-1 {
        fill: #003746;
      }

      .cls-2 {
        fill: none;
      }
    </style>
  </defs>
  <path class="cls-2" d="M0,0H150V150H0V0Z"/>
  <path class="cls-1" d="M128.94,64.79s0-.05,0-.07c-1.09-20.85-19.98-38.49-40.32-38.42C72.92,7.34,43.82,8.14,21.4,10.92c0,0,0,53.33,0,53.36,0,11.09,9.97,20.87,19.99,20.87-.44,0,29.55,.11,41.59,.26,.11,7.35,.24,15.34-.09,22.67,.06,2.31-3.28,2.3-3.88,.66-.95-3.78-.11-12.31-.46-12.31H32.89c-.35,0,0-.35,0,0-.3,13.93,1.89,31.06,15.35,38.37,12.17,6.67,26.72,7.17,40.26,6.52,51.29-1.88,38.9-39.59,40.44-76.53Zm-9.92,10.22c-3.53,.44-5.74,2.26-5.74,6.13h-1.46c-1.02-4.55-1.95-5.47-6.12-6.13,0,0,0-1.69,0-1.48,3.91,.2,5.99-2.02,6.12-5.87h1.46c.42,3.57,1.84,5.76,5.74,5.87v1.48Z"/>
</svg>