<svg xmlns="http://www.w3.org/2000/svg" xmlns:xlink="http://www.w3.org/1999/xlink" xmlns:xodm="http://www.corel.com/coreldraw/odm/2003" xml:space="preserve" width="602px" height="264px" style="shape-rendering:geometricPrecision; text-rendering:geometricPrecision; image-rendering:optimizeQuality; fill-rule:evenodd; clip-rule:evenodd" viewBox="0 0 12.33 5.4">
 <defs>
  <style type="text/css">
   <![CDATA[
    .fil2 {fill:#333333}
    .fil3 {fill:white}
    .fil1 {fill:white}
    .fil0 {fill:white;fill-rule:nonzero}
   ]]>
  </style>
 </defs>
 <g id="Ebene_x0020_1">
  <metadata id="CorelCorpID_0Corel-Layer"></metadata>
  <path class="fil0" d="M0.72 4.11l0.4 0 0 -0.24c0,-0.05 0,-0.08 0,-0.09 -0.01,-0.01 -0.02,-0.02 -0.03,-0.03 -0.02,-0.01 -0.04,-0.01 -0.06,-0.01l-0.03 0 0 -0.03 0.37 0 0 0.03 -0.03 0c-0.02,0 -0.04,0 -0.06,0.01 -0.01,0.01 -0.02,0.02 -0.03,0.03 0,0.02 0,0.04 0,0.09l0 0.55c0,0.05 0,0.08 0,0.09 0.01,0.01 0.02,0.02 0.03,0.03 0.02,0.01 0.04,0.01 0.06,0.01l0.03 0 0 0.03 -0.37 0 0 -0.03 0.03 0c0.04,0 0.06,-0.01 0.08,-0.03 0.01,-0.01 0.01,-0.04 0.01,-0.1l0 -0.26 -0.4 0 0 0.26c0,0.05 0.01,0.08 0.01,0.09 0.01,0.01 0.02,0.02 0.03,0.03 0.02,0.01 0.04,0.01 0.06,0.01l0.03 0 0 0.03 -0.37 0 0 -0.03 0.03 0c0.03,0 0.06,-0.01 0.08,-0.03 0.01,-0.01 0.01,-0.04 0.01,-0.1l0 -0.55c0,-0.05 0,-0.08 -0.01,-0.09 0,-0.01 -0.01,-0.02 -0.02,-0.03 -0.02,-0.01 -0.04,-0.01 -0.06,-0.01l-0.03 0 0 -0.03 0.37 0 0 0.03 -0.03 0c-0.02,0 -0.04,0 -0.06,0.01 -0.01,0.01 -0.02,0.02 -0.03,0.03 0,0.02 -0.01,0.04 -0.01,0.09l0 0.24z"></path>
  <path id="1" class="fil0" d="M1.87 3.69c0.11,0 0.21,0.05 0.29,0.13 0.08,0.09 0.12,0.19 0.12,0.32 0,0.13 -0.04,0.24 -0.12,0.33 -0.08,0.08 -0.18,0.13 -0.3,0.13 -0.12,0 -0.22,-0.05 -0.3,-0.13 -0.08,-0.09 -0.12,-0.19 -0.12,-0.33 0,-0.14 0.05,-0.25 0.14,-0.33 0.08,-0.08 0.18,-0.12 0.29,-0.12zm-0.01 0.05c-0.08,0 -0.14,0.03 -0.19,0.09 -0.05,0.07 -0.08,0.17 -0.08,0.31 0,0.14 0.03,0.25 0.09,0.32 0.04,0.06 0.1,0.09 0.18,0.09 0.08,0 0.15,-0.03 0.2,-0.1 0.05,-0.06 0.08,-0.16 0.08,-0.29 0,-0.15 -0.03,-0.26 -0.09,-0.33 -0.04,-0.06 -0.11,-0.09 -0.19,-0.09z"></path>
  <path id="2" class="fil0" d="M3.09 3.71l0.01 0.21 -0.03 0c0,-0.04 -0.01,-0.07 -0.02,-0.08 -0.01,-0.02 -0.03,-0.04 -0.05,-0.05 -0.02,-0.02 -0.05,-0.02 -0.08,-0.02l-0.13 0 0 0.66c0,0.05 0.01,0.08 0.02,0.1 0.02,0.01 0.04,0.02 0.08,0.02l0.03 0 0 0.03 -0.37 0 0 -0.03 0.03 0c0.04,0 0.06,-0.01 0.08,-0.03 0.01,-0.01 0.01,-0.05 0.01,-0.09l0 -0.66 -0.1 0c-0.04,0 -0.07,0 -0.09,0.01 -0.02,0 -0.04,0.02 -0.05,0.04 -0.02,0.03 -0.03,0.06 -0.03,0.1l-0.03 0 0.01 -0.21 0.71 0z"></path>
  <path id="3" class="fil0" d="M3.4 3.76l0 0.34 0.19 0c0.05,0 0.08,-0.01 0.1,-0.02 0.02,-0.02 0.03,-0.05 0.04,-0.1l0.02 0 0 0.3 -0.02 0c-0.01,-0.05 -0.02,-0.07 -0.02,-0.08 -0.01,-0.02 -0.02,-0.03 -0.04,-0.04 -0.02,-0.01 -0.04,-0.01 -0.08,-0.01l-0.19 0 0 0.28c0,0.04 0,0.06 0.01,0.07 0,0.01 0.01,0.02 0.01,0.02 0.01,0.01 0.03,0.01 0.05,0.01l0.15 0c0.05,0 0.08,0 0.1,-0.01 0.03,-0.01 0.05,-0.02 0.07,-0.04 0.02,-0.03 0.05,-0.07 0.08,-0.12l0.02 0 -0.07 0.22 -0.66 0 0 -0.03 0.03 0c0.02,0 0.04,0 0.05,-0.01 0.02,-0.01 0.03,-0.02 0.03,-0.03 0.01,-0.02 0.01,-0.04 0.01,-0.09l0 -0.56c0,-0.05 -0.01,-0.09 -0.02,-0.1 -0.01,-0.01 -0.04,-0.02 -0.07,-0.02l-0.03 0 0 -0.03 0.66 0 0.01 0.19 -0.03 0c0,-0.04 -0.01,-0.07 -0.02,-0.09 -0.02,-0.02 -0.03,-0.03 -0.05,-0.04 -0.02,-0.01 -0.05,-0.01 -0.09,-0.01l-0.24 0z"></path>
  <path id="4" class="fil0" d="M4.67 4.34l0.02 0 -0.07 0.24 -0.67 0 0 -0.03 0.03 0c0.04,0 0.06,-0.01 0.08,-0.03 0.01,-0.02 0.01,-0.05 0.01,-0.1l0 -0.55c0,-0.06 0,-0.09 -0.01,-0.11 -0.02,-0.01 -0.04,-0.02 -0.08,-0.02l-0.03 0 0 -0.03 0.39 0 0 0.03c-0.05,0 -0.08,0 -0.1,0.01 -0.01,0.01 -0.03,0.02 -0.03,0.03 -0.01,0.02 -0.01,0.05 -0.01,0.1l0 0.54c0,0.04 0,0.06 0.01,0.07 0,0.01 0.01,0.02 0.02,0.02 0.01,0.01 0.04,0.01 0.1,0.01l0.06 0c0.07,0 0.11,0 0.14,-0.01 0.03,-0.01 0.05,-0.03 0.07,-0.06 0.03,-0.02 0.05,-0.06 0.07,-0.11z"></path>
  <path id="5" class="fil0" d="M5.52 4.29l-0.33 0 -0.06 0.13c-0.02,0.04 -0.02,0.06 -0.02,0.08 0,0.01 0,0.02 0.02,0.03 0.01,0.01 0.03,0.02 0.08,0.02l0 0.03 -0.28 0 0 -0.03c0.04,0 0.06,-0.01 0.07,-0.02 0.03,-0.02 0.05,-0.06 0.08,-0.13l0.3 -0.71 0.02 0 0.3 0.72c0.02,0.06 0.05,0.1 0.07,0.11 0.02,0.02 0.04,0.03 0.08,0.03l0 0.03 -0.34 0 0 -0.03c0.03,0 0.06,-0.01 0.07,-0.01 0.01,-0.01 0.02,-0.03 0.02,-0.04 0,-0.02 -0.01,-0.05 -0.03,-0.09l-0.05 -0.12zm-0.02 -0.05l-0.14 -0.35 -0.15 0.35 0.29 0z"></path>
  <path id="6" class="fil0" d="M6.65 3.69l0.02 0.3 -0.02 0c-0.03,-0.09 -0.07,-0.15 -0.12,-0.19 -0.04,-0.04 -0.1,-0.06 -0.17,-0.06 -0.06,0 -0.11,0.01 -0.15,0.04 -0.05,0.03 -0.09,0.08 -0.11,0.14 -0.03,0.07 -0.04,0.14 -0.04,0.24 0,0.08 0.01,0.14 0.03,0.2 0.03,0.06 0.07,0.1 0.12,0.13 0.05,0.03 0.1,0.05 0.17,0.05 0.05,0 0.1,-0.01 0.15,-0.04 0.04,-0.02 0.08,-0.07 0.14,-0.14l0.02 0.01c-0.05,0.08 -0.1,0.14 -0.16,0.17 -0.05,0.04 -0.12,0.06 -0.2,0.06 -0.14,0 -0.25,-0.06 -0.33,-0.16 -0.06,-0.08 -0.09,-0.18 -0.09,-0.28 0,-0.09 0.02,-0.17 0.06,-0.24 0.04,-0.07 0.09,-0.13 0.16,-0.17 0.06,-0.04 0.14,-0.06 0.22,-0.06 0.06,0 0.12,0.02 0.18,0.05 0.02,0.01 0.03,0.01 0.04,0.01 0.01,0 0.02,0 0.03,-0.01 0.01,-0.01 0.02,-0.03 0.02,-0.05l0.03 0z"></path>
  <path id="7" class="fil0" d="M7.48 4.34l0.02 0 -0.08 0.24 -0.66 0 0 -0.03 0.03 0c0.04,0 0.06,-0.01 0.08,-0.03 0.01,-0.02 0.01,-0.05 0.01,-0.1l0 -0.55c0,-0.06 -0.01,-0.09 -0.02,-0.11 -0.01,-0.01 -0.04,-0.02 -0.07,-0.02l-0.03 0 0 -0.03 0.39 0 0 0.03c-0.05,0 -0.08,0 -0.1,0.01 -0.02,0.01 -0.03,0.02 -0.04,0.03 0,0.02 -0.01,0.05 -0.01,0.1l0 0.54c0,0.04 0.01,0.06 0.01,0.07 0.01,0.01 0.02,0.02 0.03,0.02 0.01,0.01 0.04,0.01 0.1,0.01l0.06 0c0.07,0 0.11,0 0.14,-0.01 0.02,-0.01 0.05,-0.03 0.07,-0.06 0.02,-0.02 0.05,-0.06 0.07,-0.11z"></path>
  <path id="8" class="fil0" d="M8.12 4.29l-0.33 0 -0.06 0.13c-0.01,0.04 -0.02,0.06 -0.02,0.08 0,0.01 0,0.02 0.02,0.03 0.01,0.01 0.04,0.02 0.08,0.02l0 0.03 -0.27 0 0 -0.03c0.03,0 0.06,-0.01 0.07,-0.02 0.02,-0.02 0.04,-0.06 0.07,-0.13l0.3 -0.71 0.02 0 0.3 0.72c0.03,0.06 0.05,0.1 0.07,0.11 0.02,0.02 0.04,0.03 0.08,0.03l0 0.03 -0.34 0 0 -0.03c0.03,0 0.06,-0.01 0.07,-0.01 0.01,-0.01 0.02,-0.03 0.02,-0.04 0,-0.02 -0.01,-0.05 -0.03,-0.09l-0.05 -0.12zm-0.02 -0.05l-0.14 -0.35 -0.15 0.35 0.29 0z"></path>
  <path id="9" class="fil0" d="M8.98 3.76l0 0.34 0.16 0c0.04,0 0.06,-0.01 0.08,-0.03 0.02,-0.01 0.03,-0.04 0.03,-0.09l0.03 0 0 0.29 -0.03 0c0,-0.03 0,-0.06 -0.01,-0.07 -0.01,-0.02 -0.02,-0.03 -0.03,-0.04 -0.02,0 -0.04,-0.01 -0.07,-0.01l-0.16 0 0 0.27c0,0.05 0.01,0.08 0.01,0.09 0.01,0.01 0.02,0.02 0.03,0.03 0.02,0.01 0.04,0.01 0.06,0.01l0.03 0 0 0.03 -0.37 0 0 -0.03 0.03 0c0.04,0 0.06,-0.01 0.08,-0.03 0.01,-0.01 0.01,-0.04 0.01,-0.1l0 -0.55c0,-0.05 0,-0.08 -0.01,-0.09 0,-0.01 -0.01,-0.02 -0.02,-0.03 -0.02,-0.01 -0.04,-0.01 -0.06,-0.01l-0.03 0 0 -0.03 0.64 0 0.01 0.19 -0.02 0c-0.01,-0.04 -0.03,-0.07 -0.04,-0.09 -0.02,-0.01 -0.04,-0.03 -0.06,-0.04 -0.02,-0.01 -0.05,-0.01 -0.1,-0.01l-0.19 0z"></path>
  <path id="10" class="fil0" d="M9.84 4.55l0 0.03 -0.37 0 0 -0.03 0.03 0c0.04,0 0.07,-0.01 0.08,-0.03 0.01,-0.01 0.02,-0.04 0.02,-0.1l0 -0.55c0,-0.05 0,-0.08 -0.01,-0.09 0,-0.01 -0.01,-0.02 -0.03,-0.03 -0.02,-0.01 -0.03,-0.01 -0.06,-0.01l-0.03 0 0 -0.03 0.37 0 0 0.03 -0.03 0c-0.03,0 -0.06,0.01 -0.07,0.03 -0.01,0.01 -0.02,0.04 -0.02,0.1l0 0.55c0,0.05 0,0.08 0.01,0.09 0,0.01 0.01,0.02 0.03,0.03 0.01,0.01 0.03,0.01 0.05,0.01l0.03 0z"></path>
  <path id="11" class="fil0" d="M10.62 4.34l0.02 0 -0.07 0.24 -0.67 0 0 -0.03 0.03 0c0.04,0 0.07,-0.01 0.08,-0.03 0.01,-0.02 0.01,-0.05 0.01,-0.1l0 -0.55c0,-0.06 0,-0.09 -0.01,-0.11 -0.02,-0.01 -0.04,-0.02 -0.08,-0.02l-0.03 0 0 -0.03 0.39 0 0 0.03c-0.04,0 -0.08,0 -0.1,0.01 -0.01,0.01 -0.03,0.02 -0.03,0.03 -0.01,0.02 -0.01,0.05 -0.01,0.1l0 0.54c0,0.04 0,0.06 0.01,0.07 0,0.01 0.01,0.02 0.02,0.02 0.01,0.01 0.04,0.01 0.1,0.01l0.06 0c0.07,0 0.12,0 0.14,-0.01 0.03,-0.01 0.05,-0.03 0.08,-0.06 0.02,-0.02 0.04,-0.06 0.06,-0.11z"></path>
  <path id="12" class="fil0" d="M11.42 4.34l0.02 0 -0.08 0.24 -0.66 0 0 -0.03 0.03 0c0.03,0 0.06,-0.01 0.08,-0.03 0,-0.02 0.01,-0.05 0.01,-0.1l0 -0.55c0,-0.06 -0.01,-0.09 -0.02,-0.11 -0.02,-0.01 -0.04,-0.02 -0.07,-0.02l-0.03 0 0 -0.03 0.39 0 0 0.03c-0.05,0 -0.08,0 -0.1,0.01 -0.02,0.01 -0.03,0.02 -0.04,0.03 -0.01,0.02 -0.01,0.05 -0.01,0.1l0 0.54c0,0.04 0,0.06 0.01,0.07 0.01,0.01 0.01,0.02 0.03,0.02 0.01,0.01 0.04,0.01 0.09,0.01l0.07 0c0.06,0 0.11,0 0.14,-0.01 0.02,-0.01 0.05,-0.03 0.07,-0.06 0.02,-0.02 0.04,-0.06 0.07,-0.11z"></path>
  <path id="13" class="fil0" d="M11.87 4.55l0 0.03 -0.37 0 0 -0.03 0.03 0c0.03,0 0.06,-0.01 0.07,-0.03 0.02,-0.01 0.02,-0.04 0.02,-0.1l0 -0.55c0,-0.05 0,-0.08 -0.01,-0.09 0,-0.01 -0.01,-0.02 -0.02,-0.03 -0.02,-0.01 -0.04,-0.01 -0.06,-0.01l-0.03 0 0 -0.03 0.37 0 0 0.03 -0.03 0c-0.04,0 -0.07,0.01 -0.08,0.03 -0.01,0.01 -0.02,0.04 -0.02,0.1l0 0.55c0,0.05 0.01,0.08 0.01,0.09 0,0.01 0.01,0.02 0.03,0.03 0.02,0.01 0.03,0.01 0.06,0.01l0.03 0z"></path>
  <path class="fil1" d="M0 5.22l5.29 0 0 0.13 -5.29 0 0 -0.13zm7.17 0l0 0 5.16 0 0 0.13 -5.16 0 0 -0.13z"></path>
  <polygon class="fil1" points="6.83,4.95 6.89,5.12 7.07,5.12 6.92,5.23 6.98,5.4 6.83,5.3 6.69,5.4 6.74,5.23 6.59,5.12 6.78,5.12 "></polygon>
  <polygon class="fil1" points="6.23,4.95 6.29,5.12 6.47,5.12 6.32,5.23 6.38,5.4 6.23,5.3 6.08,5.4 6.14,5.23 5.99,5.12 6.17,5.12 "></polygon>
  <polygon class="fil1" points="5.63,4.95 5.68,5.12 5.87,5.12 5.72,5.23 5.77,5.4 5.63,5.3 5.48,5.4 5.54,5.23 5.39,5.12 5.57,5.12 "></polygon>
  <path class="fil2" d="M10.52 2.93l-0.33 -0.34c-0.02,-0.02 -0.04,-0.04 -0.06,-0.07 -0.14,-0.14 -0.34,-0.32 -0.44,-0.48l-0.21 -0.32c-0.05,-0.07 -0.99,-0.73 -1.07,-0.79 -0.29,-0.22 -0.32,-0.23 -0.64,-0.43l-0.25 -0.15c-0.03,-0.02 -0.04,-0.03 -0.08,-0.01 -0.25,0.13 -0.81,0.49 -1.02,0.59l-0.22 -0.19c-0.07,-0.05 -0.13,-0.13 -0.2,-0.18 -0.04,-0.04 -0.07,-0.07 -0.1,-0.1 -0.1,-0.08 -0.35,-0.34 -0.44,-0.37 -0.32,-0.12 -0.24,-0.13 -0.41,0.01 -0.15,0.12 -0.31,0.23 -0.46,0.35 -0.26,0.23 -0.62,0.48 -0.9,0.71 -0.15,0.12 -0.3,0.23 -0.45,0.35l-0.9 0.71c-0.1,0.07 -0.09,0.11 -0.16,0.24l-0.24 0.45 8.58 0.02z"></path>
  <path class="fil3" d="M3.12 2.77l0.4 -0.12c0.1,-0.03 0.12,-0.08 0.2,-0.15l0.09 -0.08c0.05,-0.02 0.26,0 0.34,0l2.08 0.01c0.11,0 0.22,-0.01 0.33,-0.01 0.16,-0.01 0.16,0 0.29,-0.07 0.07,-0.04 0.43,-0.22 0.49,-0.21 0.16,0.01 0.45,0.11 0.6,0.1 0.03,-0.01 0.43,-0.47 0.47,-0.48 0.06,-0.01 0.79,0.01 0.95,0.01l-1.25 -0.92c-0.13,-0.1 -0.39,-0.25 -0.55,-0.35 -0.13,-0.07 -0.08,-0.06 -0.36,0.1 -0.21,0.13 -0.74,0.42 -0.9,0.55l-0.33 0.23c-0.06,0.04 -0.04,0.03 -0.14,0.03 -0.44,0 -0.42,-0.03 -0.81,0.1 -0.12,0.05 -0.24,0.08 -0.36,0.12 -0.09,0.04 -0.44,0.37 -0.55,0.44 0.02,-0.06 0.1,-0.2 0.13,-0.27 0.03,-0.05 0.33,-0.38 0.39,-0.42 0.07,-0.05 0.42,-0.27 0.46,-0.34 0.04,-0.09 0.1,-0.19 0.13,-0.27 0.02,-0.05 0.08,-0.29 0.07,-0.33 -0.01,-0.06 -0.07,-0.29 -0.09,-0.32l-0.36 0.28c-0.58,0.46 -1.19,0.93 -1.78,1.4 -0.21,0.16 -0.09,0.05 -0.03,0.42 0.03,0.18 0.06,0.36 0.09,0.55z"></path>
 </g>
</svg>