<svg id="Layer_1" data-name="Layer 1" xmlns="http://www.w3.org/2000/svg" xmlns:xlink="http://www.w3.org/1999/xlink" viewBox="0 0 595.28 263.45"><defs><style>.cls-1{fill:none;}.cls-2{clip-path:url(#clip-path);}.cls-3{fill:#366e64;}</style><clipPath id="clip-path" transform="translate(0 -289.89)"><rect class="cls-1" y="289.89" width="595.28" height="263.45"/></clipPath></defs><title>New Palladium Logo (VR0516)</title><g class="cls-2"><path class="cls-3" d="M404.21,344.67c.26-7.34-8.13-15.38-24.26-15.94a41.36,41.36,0,0,0-8.29.68c.43.64.79,1.33,1.2,2a42,42,0,0,1,6.61-.3c5.11.18,12.48,3.62,12.32,8.18-.05,1.39-2.9,4.07-3,6.65-.17,4.95,2.28,8,6.81,8.18,6.1.21,8.41-3.88,8.6-9.43Zm-34.85-14.89c.76-.16,1.54-.24,2.3-.37A89.06,89.06,0,1,0,230.89,437.87c41-8.44,64.23-76.64,122.52-102.41l.42-.21c-9.07-7-20.68-11.34-31.88-13.54-57.4-11.28-104,20.4-108.8,45.34-2.21,11.49,1.73,18.13,13.13,20.37,23.77,4.67,65.32-26.79,77.09-53.59.65-1.29,1.53-2.73,2.11-2.62s.7.54.44,1.91c-2.63,13.63-36.37,66-76.57,58.14C217.76,389,207.8,382.37,210.76,367c5.39-28.05,52.69-59.19,112.6-47.42A93.36,93.36,0,0,1,357,333.7a63.3,63.3,0,0,1,9.1-3.22,20.13,20.13,0,0,1,3.3-.7Zm-136.77,110A89,89,0,0,0,372.86,331.39a46,46,0,0,0-6.31,1.21,59.31,59.31,0,0,0-7.15,2.94c10.08,8,17.39,22.22,14.84,35.46-3.86,20.07-25.75,32.75-45.08,28.95-11.4-2.24-16-9.42-15.88-10.19a1.65,1.65,0,0,1,1.61-1.1c1,.19,1.73,5.59,12,7.61C346,400,361.43,379.2,364.43,363.62c2.13-11.11,0-18.8-8.11-26.66-21.51,12.75-31.45,28-55.56,57.41-12,14.59-40.26,39.62-68.17,45.37Zm0,0c-.57-.62-1.14-1.24-1.7-1.87a43.29,43.29,0,0,1-17.32,0c-5-1-11.77-5.55-10.91-10,.26-1.36,3.49-3.56,4-6.09.94-4.87-1-8.29-5.46-9.16-6-1.18-8.9,2.5-10,7.95-1.39,7.21,5.66,16.48,21.5,19.59a50.23,50.23,0,0,0,19.86-.41Z" transform="translate(0 -289.89)"/></g><path class="cls-3" d="M12.44,510.89a25,25,0,0,1,6.54-.77c6.35,0,10.39,2.89,10.39,9.56a9.23,9.23,0,0,1-9.23,9.55,13.81,13.81,0,0,1-4.24-.64l.64,2.31a20.18,20.18,0,0,0,3.85.38c8.47,0,15.39-5.77,15.39-13.79,0-7.05-6.73-9.81-12.82-9.81h-.45c-3.46.07-7.18.2-10.9.2s-7.31-.13-11.55-.2v1.93L3,509.8c1.6.13,2.31.45,2.76,1.09s.64,2.44.64,4.68v28.79c0,2.44-.13,4.11-.58,4.81s-1.15.9-2.69,1l-3.08.2v1.92c3.33-.13,6.35-.19,9.49-.19,2.95,0,6,.06,9.3.19v-1.92l-3.08-.2c-1.54-.06-2.31-.32-2.69-1s-.58-2.37-.58-4.81V510.89Zm70.79-3.72h-2c-1.73,4.62-3.91,9.36-5.9,13.85L63.87,547c-.71,1.67-1.93,3-3.46,3.14l-2.38.2v1.92c2.44-.06,4.88-.19,7.38-.19,1.86,0,4.29.13,7.37.19v-1.92l-2.37-.2c-2-.19-3.08-.44-3.08-1.79,0-1,1.67-5.32,2.25-6.67l1.79-4.3H89.84l3,7.38a15,15,0,0,1,1.35,4.1c0,.77-1.29,1.22-2.63,1.28l-3,.2v1.92c3.47-.06,6.29-.19,8.53-.19,2.89,0,5.71.13,8.53.19v-1.92l-2.18-.2c-1.15-.12-1.86-1-2.57-2.18s-1.47-3.07-2-4.36L83.23,507.17ZM72.46,534.81l8.15-19.11,8.08,19.11Zm74-19.24c0-2.44.13-4.1.58-4.81s1.15-.9,2.69-1l3.08-.19v-1.93c-3.33.13-6.35.2-9.3.2-3.14,0-6.15-.07-9.49-.2v1.93l3.08.19c1.54.06,2.31.32,2.69,1s.58,2.37.58,4.81V546c0,1.73-.51,3.2-1.6,3.78l-2,1v1.47c1.67-.06,3.27-.19,5.45-.19,4,0,8.21.13,14,.19h2c4.1,0,8.21-.13,10.64-.19.51-3.21,1-7.5,1.35-11h-2.05l-.77,3.2c-.32,1.35-.71,3.53-1.35,4.11-1.09,1-8.91,1.22-14.17,1.22a22.23,22.23,0,0,1-5.39-.52V515.57Zm64.83,0c0-2.44.13-4.1.58-4.81s1.15-.9,2.69-1l3.08-.19v-1.93c-3.33.13-6.35.2-9.3.2-3.14,0-6.15-.07-9.49-.2v1.93l3.08.19c1.54.06,2.31.32,2.69,1s.58,2.37.58,4.81V546c0,1.73-.51,3.2-1.6,3.78l-2,1v1.47c1.67-.06,3.27-.19,5.45-.19,4,0,8.21.13,14,.19h2c4.1,0,8.21-.13,10.64-.19.52-3.21,1-7.5,1.35-11H233l-.77,3.2c-.32,1.35-.71,3.53-1.35,4.11-1.09,1-8.91,1.22-14.17,1.22a22.23,22.23,0,0,1-5.39-.52V515.57Zm77.15-8.4h-2.06c-1.73,4.62-3.91,9.36-5.9,13.85l-11.41,26c-.71,1.67-1.92,3-3.46,3.14l-2.38.2v1.92c2.44-.06,4.88-.19,7.38-.19,1.86,0,4.29.13,7.37.19v-1.92l-2.37-.2c-2-.19-3.08-.44-3.08-1.79,0-1,1.67-5.32,2.25-6.67l1.79-4.3H295l2.95,7.38a15,15,0,0,1,1.35,4.1c0,.77-1.29,1.22-2.63,1.28l-3,.2v1.92c3.47-.06,6.29-.19,8.53-.19,2.89,0,5.71.13,8.53.19v-1.92l-2.18-.2c-1.15-.12-1.86-1-2.56-2.18s-1.48-3.07-2.06-4.36l-15.51-36.42Zm-10.78,27.64,8.15-19.11,8.08,19.11ZM345.06,546c0,1.73-.51,3.2-1.6,3.78l-2,1v1.47c3-.06,5.83-.19,8.72-.19s5.71.13,8.27.19h1.22a31.88,31.88,0,0,0,12.5-2.24c7.76-3.21,13.79-12.25,13.79-22.77,0-12.18-9.43-19.56-22.12-19.56H363c-2.82.07-6.92.2-11.15.2s-8.34-.13-12.64-.2v1.93l2.57.19c1.54.13,2.31.32,2.69,1s.58,2.37.58,4.81V546Zm6.09-35.21a37.69,37.69,0,0,1,7.31-.51c11.54,0,20.65,2.88,20.65,18.79,0,8.65-3.14,15.26-10.2,18.53a23.88,23.88,0,0,1-10.45,1.86,37.69,37.69,0,0,1-7.31-.51V510.76Zm75.8,4.81c0-2.44.13-4.1.57-4.81s1.16-.9,2.7-1l3.08-.19v-1.93c-3.34.13-6.35.2-9.3.2-3.15,0-6.16-.07-9.49-.2v1.93l3.07.19c1.54.06,2.31.32,2.7,1s.57,2.37.57,4.81v28.79c0,2.44-.12,4.11-.57,4.81s-1.16.9-2.7,1l-3.07.2v1.92c3.33-.13,6.34-.19,9.49-.19,2.95,0,6,.06,9.3.19v-1.92l-3.08-.2c-1.54-.06-2.31-.32-2.7-1s-.57-2.37-.57-4.81V515.57Zm40.52,22.77c0,11.73,6.42,15,17.32,15,12.95,0,18.14-5.51,18.14-19.24V515.57c0-2.44.13-4.1.58-4.81s1.16-.83,2.69-1l2.83-.19v-1.93c-2.83.07-5.13.2-7.7.2-2.31,0-4.87-.13-7.44-.2v1.93l2.82.19c1.54.13,2.31.32,2.7,1s.57,2.37.57,4.81v20.52c0,10.65-6.28,13.28-13.21,13.28-8.46,0-13.21-2.63-13.21-11.74V515.57c0-2.44.13-4.1.58-4.81s1.16-.9,2.7-1l3.07-.19v-1.93c-3.33.13-6.35.2-9.3.2-3.14,0-6.15-.07-9.49-.2v1.93l3.08.19c1.54.06,2.31.32,2.7,1s.57,2.37.57,4.81v22.77Zm121.46-22.77c0-2.44.12-4.1.57-4.81s1.16-.83,2.7-1l2.69-.19v-1.93c-1.86.07-3.91.2-6,.2s-4-.13-6.09-.2L566,543.34,549.1,507.68c-2,.07-4,.2-6.09.2s-4.1-.13-6.09-.2v1.93l2.82.19c1.54.13,2.31.32,2.7,1s.57,2.37.57,4.81v28.79c0,2.44-.12,4.11-.57,4.81s-1.16.84-2.7,1l-2.82.2v1.92c2.57-.06,5.13-.19,7.44-.19,2.56,0,4.87.13,7.69.19v-1.92l-2.82-.2c-1.54-.12-2.31-.32-2.69-1s-.58-2.37-.58-4.81V515.25h.13l17.76,37.64h1.29c1.15-2.69,2.24-5.51,3.46-8.14L580,520.51c.84-1.73,1.73-3.53,2.7-5.26h.13v29.11c0,2.44-.13,4.11-.58,4.81s-1.16.84-2.7,1l-2.17.2v1.92c2.43-.13,5.45-.19,8.59-.19,2.95,0,6,.06,9.3.19v-1.92l-3.08-.2c-1.54-.06-2.31-.32-2.7-1s-.57-2.37-.57-4.81V515.57Z" transform="translate(0 -289.89)"/></svg>