<?xml version="1.0" encoding="UTF-8"?>
<svg id="Layer_1" xmlns="http://www.w3.org/2000/svg" version="1.1" viewBox="0 0 1296.56 408.6">
  <!-- Generator: Adobe Illustrator 29.0.1, SVG Export Plug-In . SVG Version: 2.1.0 Build 192)  -->
  <defs>
    <style>
      .st0 {
        fill: #0c8950;
      }

      .st1 {
        fill: #231f20;
      }

      .st2 {
        fill: #ee3131;
      }
    </style>
  </defs>
  <g>
    <path class="st1" d="M0,380.27v-42h13.67v41.21c0,11.1,5.94,17.04,17.04,17.04h1.58c11.1,0,17.04-5.94,17.04-17.04v-41.21h13.67v42c0,17.34-10.8,28.33-31.5,28.33S0,397.61,0,380.27Z"/>
    <path class="st1" d="M134.14,407.61l-7.43-16.25h-35.87l-7.43,16.25h-14.46l32.39-69.35h15.26l32.3,69.35h-14.76ZM96.39,379.28h24.77l-12.38-26.85-12.39,26.85Z"/>
    <path class="st1" d="M171.49,395.53h48.64v12.09h-62.31v-69.35h61.32v12.09h-47.65v15.55h41.71v12.09h-41.71v17.53Z"/>
    <path class="st1" d="M261.05,407.61v-69.35h7.23v62.71h48.94v6.64h-56.17Z"/>
    <path class="st1" d="M319.1,372.94c0-22.19,16.05-35.66,37.35-35.66s37.25,13.47,37.25,35.66-15.95,35.66-37.25,35.66-37.35-13.47-37.35-35.66ZM357.24,401.97c15.85,0,29.13-10.6,29.13-29.03s-13.27-29.03-29.13-29.03h-1.58c-15.85,0-29.22,10.6-29.22,29.03s13.38,29.03,29.22,29.03h1.58Z"/>
    <path class="st1" d="M405.19,372.94c0-20.8,14.07-35.66,37.35-35.66,21.01,0,32.2,10.1,33.19,23.28h-7.92c-.89-7.43-6.93-16.64-24.47-16.64h-1.58c-17.53,0-29.22,10.6-29.22,29.03s11.89,29.03,29.22,29.03h1.58c17.34,0,26.75-8.82,26.75-18.82v-2.97h-27.25v-6.64h26.45c4.85,0,7.43,2.48,7.43,7.23v26.85h-6.63v-10.1c-2.98,4.16-11.49,11.09-27.64,11.09-23.28,0-37.25-14.56-37.25-35.66Z"/>
    <path class="st1" d="M489.3,372.94c0-22.19,16.05-35.66,37.35-35.66s37.25,13.47,37.25,35.66-15.95,35.66-37.25,35.66-37.35-13.47-37.35-35.66ZM527.44,401.97c15.85,0,29.13-10.6,29.13-29.03s-13.27-29.03-29.13-29.03h-1.58c-15.85,0-29.22,10.6-29.22,29.03s13.38,29.03,29.22,29.03h1.58Z"/>
    <path class="st1" d="M574.1,385.82h7.92c.4,10.7,9.21,16.15,22.99,16.15h1.58c14.37,0,20.22-5.25,20.22-12.68,0-6.34-4.86-10.2-17.14-12.19l-10.8-1.78c-14.46-2.38-20.9-7.23-20.9-18.63,0-9.81,8.33-19.42,27.44-19.42,18.03,0,28.73,8.12,30.12,21.3h-7.92c-1.29-9.41-9.21-14.66-21.4-14.66h-1.58c-12.38,0-19.32,5.55-19.32,12.58,0,6.54,4.86,9.71,15.46,11.39l11.1,1.78c14.86,2.38,22.29,8.42,22.29,19.32,0,12.09-9.91,19.62-28.23,19.62-19.52,0-31.5-7.63-31.8-22.79Z"/>
  </g>
  <g>
    <path class="st0" d="M270.3,231.51H120.75c-24.33,0-44.13-19.8-44.13-44.13v-116.45H0v116.45c0,66.58,54.17,120.75,120.75,120.75h226.17V70.94h-76.62v160.57Z"/>
    <path class="st0" d="M558.91,187.38c0,24.33-19.8,44.13-44.13,44.13h-32.94v76.62h32.94c66.58,0,120.75-54.17,120.75-120.75v-116.45h-76.62v116.45Z"/>
    <rect class="st0" x="376.07" y="0" width="76.62" height="308.13"/>
  </g>
  <rect class="st2" x="1207.01" y="15.37" width="74.19" height="74.19" transform="translate(401.48 -864.35) rotate(45)"/>
  <rect class="st2" x="1115.42" y="15.37" width="74.19" height="74.19" transform="translate(374.66 -799.58) rotate(45)"/>
  <g>
    <rect class="st2" x="183.73" y="15.92" width="76.85" height="76.85" transform="translate(417.66 -64.32) rotate(135)"/>
    <rect class="st2" x="86.35" y="15.92" width="76.85" height="76.85" transform="translate(-1.88 104.15) rotate(-45)"/>
  </g>
  <rect class="st2" x="1021.81" y="15.37" width="74.19" height="74.19" transform="translate(347.24 -733.4) rotate(45)"/>
  <rect class="st2" x="481.83" width="153.7" height="41.79"/>
  <rect class="st2" x="767.22" width="206.93" height="41.79"/>
  <path class="st0" d="M1219.94,106.04v110.86c0,8.05-6.56,14.61-14.61,14.61s-14.61-6.55-14.61-14.61v-110.86h-76.62v110.86c0,8.05-6.56,14.61-14.61,14.61s-14.61-6.55-14.61-14.61v-110.86h-76.62v95.34c0,16.61-13.52,30.12-30.13,30.12h-7.37c-16.51,0-32.35-6.85-43.66-18.83l36.37-40.24c16.07-17.79,20.18-43.46,10.44-65.37-9.73-21.91-31.52-36.07-55.5-36.07h-151.57v78.64l56.97,63.05c-11.31,11.98-27.15,18.83-43.66,18.83h-18.16c-13.41,0-24.32-10.91-24.32-24.31V.05h-76.62v207.15c0,55.66,45.28,100.94,100.94,100.94h18.16c35.64,0,69.9-14.01,95.3-38.72,25.4,24.71,59.67,38.72,95.3,38.72h7.37c23.69,0,45.53-7.85,63.26-20.96,15.79,13.08,36.05,20.96,58.11,20.96,19.74,0,37.98-6.37,52.92-17.06,14.95,10.69,33.19,17.06,52.92,17.06,50.3,0,91.24-40.93,91.24-91.23v-110.86h-76.62ZM870.69,162.52c-8.23,0-14.9-6.67-14.9-14.9s6.67-14.9,14.9-14.9,14.9,6.67,14.9,14.9-6.67,14.9-14.9,14.9Z"/>
</svg>