<svg xmlns="http://www.w3.org/2000/svg" viewBox="0 0 838.47 840.7"><defs><style>.cls-1{fill:#ee1b24;}</style></defs><g id="Layer_2" data-name="Layer 2"><g id="Layer_1-2" data-name="Layer 1"><path class="cls-1" d="M412.87,609.72V778.2a62.5,62.5,0,0,1-125,0v-137L132.65,796.45a62.5,62.5,0,0,1-88.39-88.39L199.48,552.84H62.5a62.5,62.5,0,0,1,0-125H229.9C233.74,526.9,313.66,606.45,412.87,609.72Z"/><path class="cls-1" d="M412.87,62.5V231c-99.22,3.27-179.13,82.82-183,181.89H62.5a62.5,62.5,0,0,1,0-125h137L44.26,132.65a62.5,62.5,0,0,1,88.39-88.39L287.87,199.48V62.5a62.5,62.5,0,0,1,125,0Z"/><path class="cls-1" d="M776,552.84H639L794.22,708.06a62.5,62.5,0,0,1-88.39,88.39L550.61,641.22v137a62.5,62.5,0,0,1-125,0V609.72c99.21-3.27,179.12-82.82,183-181.88H776a62.5,62.5,0,0,1,0,125Z"/><path class="cls-1" d="M838.47,350.37a62.5,62.5,0,0,1-62.5,62.5H608.57c-3.84-99.07-83.75-178.62-183-181.89V62.5a62.5,62.5,0,0,1,125,0v137L705.83,44.26a62.5,62.5,0,0,1,88.39,88.39L639,287.87H776A62.5,62.5,0,0,1,838.47,350.37Z"/><path class="cls-1" d="M522.84,427.84h71.58A175.33,175.33,0,0,1,425.61,595.57q-3.18.12-6.37.12t-6.37-.12A175.33,175.33,0,0,1,244.06,427.84q-.17-3.72-.16-7.49t.16-7.48A175.34,175.34,0,0,1,412.87,245.13q3.18-.12,6.37-.12t6.37.12A175.34,175.34,0,0,1,594.42,412.87H522.84a103.87,103.87,0,0,0-97.23-96.19c-2.11-.14-4.23-.2-6.37-.2s-4.26.06-6.37.2a103.87,103.87,0,0,0-97.23,96.19q-.27,3.7-.27,7.48t.27,7.49A103.86,103.86,0,0,0,412.87,524c2.11.14,4.23.2,6.37.2s4.26-.06,6.37-.2A103.87,103.87,0,0,0,522.84,427.84Z"/></g></g></svg>