<svg width="138" height="46" viewBox="0 0 138 46" fill="none" xmlns="http://www.w3.org/2000/svg">
<path d="M18.7815 45.4179C19.0467 45.1416 19.7108 44.5306 20.4208 43.9872C21.83 42.9085 23.8054 42.2173 25.8859 41.4723C27.5117 40.8906 29.1924 40.2523 30.757 39.4343C32.5949 38.4742 34.0005 37.3471 35.0529 35.9876C36.3156 34.3581 37.084 32.4004 37.4013 30.0013C37.7581 27.3104 37.5199 24.0242 36.6958 20.2327C35.3738 14.158 36.2482 10.2599 36.8261 7.68024C36.996 6.92432 37.1559 6.20943 37.2081 5.62585C37.2144 5.55473 37.218 5.4836 37.218 5.41248C37.218 4.15413 36.2096 3.13104 34.9693 3.13104C34.3501 3.13104 33.7012 3.31615 33.1404 3.46934C32.8214 3.55596 32.4889 3.65627 32.1474 3.75748C30.7364 4.17693 28.9803 4.69851 27.1334 4.69851C24.5145 4.69851 22.1751 3.63712 19.984 1.52802C19.5482 1.10857 19.0044 0.493986 18.7806 0.244141C18.5569 0.493986 18.0131 1.10766 17.5772 1.52802C15.3862 3.63803 13.0468 4.69851 10.4279 4.69851C8.58103 4.69851 6.82492 4.17693 5.41393 3.75748C5.07241 3.65627 4.73989 3.55596 4.42084 3.46934C3.86003 3.31706 3.21116 3.13104 2.59194 3.13104C1.3517 3.13104 0.343331 4.15413 0.343331 5.41248C0.343331 5.4836 0.346925 5.55564 0.353216 5.62585C0.405342 6.21034 0.565315 6.92432 0.735174 7.68024C1.31395 10.2599 2.18751 14.1571 0.866388 20.2327C0.0413595 24.0251 -0.195904 27.3114 0.16089 30.0022C0.479038 32.4013 1.24655 34.359 2.50925 35.9885C3.56256 37.348 4.96726 38.4751 6.80515 39.4353C8.36983 40.2523 10.0504 40.8915 11.6762 41.4732C13.7568 42.2182 15.7322 42.9094 17.1414 43.9881C17.8514 44.5316 18.5155 45.1425 18.7806 45.4188L18.7815 45.4179Z" fill="#EF3E42"/>
<path d="M18.7807 43.7733C18.6199 43.6311 18.2289 43.2736 17.8955 43.0137C16.418 41.863 14.2575 41.0834 12.0817 40.3046C8.8813 39.1594 5.5713 37.9375 3.46739 35.2229C2.34309 33.7722 1.65646 32.0105 1.36887 29.8367C1.03185 27.2899 1.26282 24.1486 2.05639 20.4994C3.43683 14.1538 2.52643 10.0934 1.92428 7.40618C1.76341 6.69038 1.61243 6.0147 1.56749 5.51228C1.56389 5.47945 1.563 5.44571 1.563 5.41197C1.563 4.8366 2.02494 4.36791 2.59203 4.36791C2.75291 4.36791 3.04859 4.41715 3.20137 4.44542C3.71634 4.54025 4.36971 4.73538 5.07071 4.9442C6.5563 5.38553 8.40588 5.93537 10.4271 5.93446C13.3731 5.93446 16.0639 4.73082 18.415 2.42477C18.5381 2.30349 18.6738 2.16854 18.7789 2.05273C18.8841 2.16763 19.0198 2.30349 19.1429 2.42477C21.494 4.73174 24.1857 5.93446 27.1308 5.93446C29.1529 5.93446 31.0016 5.38553 32.4872 4.9442C33.1882 4.73538 33.8416 4.54025 34.3565 4.44542C34.5102 4.41715 34.805 4.36791 34.9659 4.36791C35.5329 4.36791 35.9949 4.8366 35.9949 5.41197C35.9949 5.4448 35.9931 5.47854 35.9904 5.51228C35.9464 6.0147 35.7945 6.69038 35.6336 7.40618C35.0315 10.0934 34.1211 14.1538 35.5015 20.4994C36.2951 24.1486 36.5269 27.2899 36.189 29.8367C35.9014 32.0105 35.2148 33.7722 34.0905 35.2229C31.9866 37.9384 28.6766 39.1603 25.4762 40.3046C23.2995 41.0834 21.1399 41.863 19.6624 43.0137C19.3299 43.2727 18.9389 43.6311 18.7771 43.7733H18.7807ZM18.7807 42.9454C20.482 41.4381 22.8178 40.6019 25.2776 39.722C28.3962 38.6059 31.6208 37.415 33.6151 34.8409C34.6702 33.4795 35.3155 31.8154 35.5887 29.7546C35.9167 27.2799 35.6884 24.2115 34.9092 20.6334C33.4991 14.152 34.4284 10.0104 35.0422 7.2694C35.1977 6.57549 35.346 5.91531 35.3865 5.45574C35.3883 5.44206 35.3883 5.42747 35.3883 5.41288C35.3883 5.17763 35.2004 4.98705 34.9686 4.98705C34.4033 5.02079 33.5908 5.26243 32.6606 5.53872C31.1373 5.99099 29.2419 6.55451 27.1326 6.55451C24.05 6.55451 21.3106 5.33994 18.7798 2.92628C16.249 5.33994 13.5097 6.5536 10.4271 6.55451C8.3178 6.55451 6.42239 5.99099 4.89906 5.53872C3.96978 5.26243 3.15733 5.0217 2.59114 4.98705C2.35926 4.98705 2.17143 5.17763 2.17143 5.41288C2.17143 5.42747 2.17143 5.44115 2.17323 5.45574C2.21367 5.91622 2.36196 6.5764 2.51744 7.2694C3.13217 10.0104 4.06055 14.152 2.65045 20.6334C1.87216 24.2115 1.64388 27.2799 1.97102 29.7546C2.24423 31.8163 2.88951 33.4795 3.94461 34.8409C5.93888 37.415 9.1635 38.6059 12.2821 39.722C14.7419 40.6019 17.0768 41.4381 18.778 42.9454H18.7807ZM16.3847 14.7183C16.3847 15.2034 16.6283 15.3648 16.6759 15.3976L15.3476 16.0104C15.3944 15.9347 15.6388 15.549 15.6388 15.0629V12.59L13.9151 13.3833V15.8553C13.9151 16.3404 14.1586 16.5018 14.2053 16.5337L12.8779 17.1474C12.9256 17.0717 13.1691 16.686 13.1691 16.2009V10.8593C13.1691 10.3742 12.9256 10.2128 12.8779 10.1809L14.2053 9.5709C14.1586 9.64658 13.9151 10.0323 13.9151 10.5174V12.7432L15.6388 11.9499V9.72135C15.6388 9.23625 15.3952 9.07485 15.3476 9.04294L16.6759 8.432C16.6283 8.50769 16.3847 8.8934 16.3847 9.3785V14.7174M20.5036 9.60737C20.145 10.4435 19.178 9.79977 18.2703 11.0189V8.17213L18.6055 8.01711C19.5959 7.5621 20.0767 8.32167 20.1675 8.49675L19.8862 6.95481L17.2331 8.17486C17.2799 8.20678 17.5243 8.36909 17.5243 8.85328V14.1921C17.5243 14.6772 17.2808 15.0629 17.2331 15.1386L20.3625 13.6988L20.5359 11.8742C20.4461 12.1405 19.9077 13.4408 18.9173 13.8958L18.2694 14.1921V11.5286C18.9919 10.5721 20.5485 11.2469 20.5027 9.60464M10.3345 17.4219C10.3345 17.9571 10.0784 18.3766 10.029 18.4587L11.3878 17.8331C11.3384 17.7967 11.1182 17.5869 11.1182 17.0526V10.7809C12.2344 10.2274 12.4843 11.4967 12.5778 11.6919L12.3261 9.69582L8.95679 11.2469L8.82648 13.3596C8.92085 13.0769 9.3073 11.5569 10.3336 11.1402V17.4219H10.3345ZM27.3357 31.7634V25.8318C27.3357 25.3021 27.6017 24.8808 27.6529 24.7978L26.534 25.313L25.3504 29.6716L23.961 26.4948L22.8214 27.02C22.9301 27.02 23.4999 27.2862 23.4999 27.8671V33.5278C23.4999 34.0585 23.2339 34.4789 23.1827 34.5618L24.378 34.0111C24.3268 33.9764 24.0598 33.8005 24.0598 33.2698V28.8856L25.3208 31.6494L26.5205 27.2817V32.1391C26.5205 32.6689 26.2545 33.0901 26.2033 33.1731L27.6529 32.5056C27.6017 32.4701 27.3357 32.2941 27.3357 31.7643M20.7876 32.2676C21.9398 32.3579 22.7064 35.8585 24.3672 35.2904C21.6809 37.1105 21.3026 32.0379 19.932 32.6287V35.1682C19.932 35.698 20.198 35.874 20.2502 35.9096L18.8005 36.5807C18.8517 36.4977 19.1178 36.0764 19.1178 35.5466V29.6133C19.1178 29.0835 18.8517 28.9075 18.8005 28.8719L20.225 28.2163C21.6234 27.5726 22.293 28.9084 22.293 29.8011C22.293 30.4959 22.1087 31.8135 20.7876 32.2667M19.9329 32.1227C21.1111 31.7224 21.3664 31.012 21.3664 29.926C21.3664 29.0023 20.9503 28.447 20.3203 28.685L19.9338 28.8628V32.1227M17.1388 37.3439C17.1819 37.2591 17.4048 36.8278 17.3041 36.2889L17.0831 35.253L15.4806 35.9907L15.264 37.2272C15.1679 37.8563 15.3926 38.0816 15.4357 38.1272L14.2602 38.6679C14.3258 38.574 14.5747 38.129 14.6718 37.4998L15.9965 29.9716C16.0792 29.5458 16.1385 29.2093 16.6517 28.9804L18.0986 35.9241C18.2316 36.4886 18.4931 36.6554 18.5588 36.6901L17.1397 37.3448L17.1388 37.3439ZM16.9348 34.5637L16.2706 31.5163L15.6235 35.1673L16.9348 34.5637ZM30.4354 27.8899C31.7529 24.5516 32.471 22.1398 31.4051 22.0322C31.22 22.013 30.9081 22.1288 30.7832 22.6623C31.4339 22.4316 31.3278 24.1048 30.1694 27.1823L29.2509 24.9492C29.1107 24.4841 29.3398 24.0692 29.4081 23.9899L27.9486 24.6619C28.0106 24.692 28.2425 24.878 28.4267 25.3294L29.6202 28.3239V30.7129C29.6202 31.2436 29.3542 31.6649 29.3021 31.747L30.7526 31.0832C30.7014 31.0485 30.4345 30.8716 30.4345 30.3418V27.8899H30.4354ZM24.99 15.828C24.99 15.2973 25.256 14.8769 25.3082 14.7939L23.8576 15.4623C23.9098 15.497 24.1758 15.6739 24.1758 16.2037V22.1425C24.1758 22.6732 23.9098 23.0908 23.8576 23.1738L25.3082 22.5063C25.2569 22.4708 24.99 22.2948 24.99 21.765V15.8289V15.828ZM27.6754 13.6523C28.966 13.0432 29.3749 14.6088 29.3749 16.7781C29.3749 18.9474 28.9651 20.9006 27.6754 21.5097C26.3857 22.1188 25.9759 20.5532 25.9759 18.383C25.9759 16.2128 26.3857 14.2605 27.6754 13.6514M27.6709 20.9671C28.2973 20.6826 28.4959 19.0851 28.4959 17.2258C28.4959 15.3666 28.2973 13.9496 27.6709 14.2341C27.0445 14.5177 26.8459 16.1161 26.8459 17.9754C26.8459 19.8346 27.0454 21.2507 27.6709 20.9671ZM21.3745 23.4282C21.3745 23.958 21.1084 24.3793 21.0563 24.4622L22.5068 23.7948C22.4556 23.7592 22.1887 23.5832 22.1887 23.0534L22.1869 16.7535C23.1971 16.2237 23.5035 17.2204 23.6015 17.4119L23.295 15.7213L20.1477 17.173L20.0075 19.1006C20.1064 18.8188 20.4928 17.5331 21.3727 17.1292V23.43L21.3745 23.4282ZM15.5912 27.2753L16.9446 19.5264C17.0372 18.9538 17.2754 18.5462 17.3374 18.4587L16.1816 18.9912C16.223 19.0313 16.4378 19.231 16.3452 19.8027L15.5292 25.1133L14.643 20.5869C14.5478 20.1018 14.7599 19.7051 14.8003 19.6276L13.4234 20.2623C13.4864 20.2924 13.7659 20.462 13.862 20.948L14.7023 25.0686C14.7742 25.4598 15.0492 27.34 15.5921 27.2753M9.70184 29.688C9.74318 29.6105 9.95528 29.2139 9.85911 28.7279L9.66139 27.7604L8.27916 28.3932L8.08413 29.544C7.99246 30.1157 8.20636 30.3163 8.2477 30.3564L7.13868 30.867C7.20069 30.7804 7.43795 30.3719 7.53052 29.7993L8.71953 22.7079C8.78064 22.344 8.96758 22.0969 9.31179 21.9766L10.614 28.3795C10.7102 28.8655 10.9897 29.0352 11.0526 29.0652L9.70273 29.6871L9.70184 29.688ZM9.53288 27.1221L8.95949 24.2771L8.40318 27.6419L9.53288 27.1221ZM19.302 25.2711C19.3433 25.1926 19.5554 24.7969 19.4593 24.3109L19.2616 23.3434L17.8793 23.9762L17.6843 25.127C17.5926 25.6987 17.8065 25.8993 17.8479 25.9394L16.7388 26.4501C16.8009 26.3634 17.0381 25.9549 17.1307 25.3823L18.3197 18.2909C18.3808 17.927 18.5677 17.6799 18.912 17.5596L20.2142 23.9626C20.3104 24.4486 20.5899 24.6182 20.6528 24.6483L19.3038 25.2701L19.302 25.2711ZM19.133 22.7051L18.5597 19.8602L18.0033 23.2249L19.133 22.7051ZM14.3446 25.7069C13.5816 25.8227 13.8719 27.1786 12.3872 27.9382V21.631C12.3872 21.1012 12.6532 20.6799 12.7045 20.5969L11.2539 21.2598C11.3052 21.2954 11.5721 21.4714 11.5721 22.0012V27.9382C11.5721 28.4689 11.3061 28.8902 11.2539 28.9722L13.9654 27.7248C13.9025 27.2215 13.986 26.3634 14.3446 25.706M5.12643 23.1784C5.92001 23.1683 6.40172 24.2142 5.67735 24.7704C5.96135 24.8242 6.2094 24.6747 6.29298 24.5361C6.3442 24.7559 6.61202 25.034 6.75312 25.0285C6.65157 24.7613 6.31455 23.5914 7.0515 22.5501C6.6974 22.5638 6.36398 22.8036 6.19951 23.0826C5.81396 22.6458 5.3601 22.5948 5.11565 22.5948C4.04707 22.5948 3.3937 23.503 3.3937 24.6018C3.3937 27.1722 6.26152 27.8142 6.26152 30.1613C6.26152 30.785 5.89304 31.705 5.05274 31.7452C4.0929 31.7917 3.86553 31.0485 3.86553 30.516C3.86553 29.6598 4.38948 29.4418 4.69684 29.3078C4.0974 29.1218 3.09262 29.5348 3.09262 30.5835C3.09262 31.8792 4.15761 32.3789 5.0069 32.3078C6.11233 32.2157 6.95444 31.1926 6.95444 29.8303C6.95444 27.0574 4.05426 26.0999 4.05426 24.4157C4.05426 23.6033 4.57462 23.1847 5.12464 23.1784M30.829 14.6845C31.477 16.4097 32.9195 18.6346 33.4614 19.1179C32.4845 14.6636 33.3401 10.7791 33.1504 10.1727C32.959 9.56087 32.302 9.68853 32.1043 10.3642C32.9698 10.0642 32.2247 13.5 32.5986 16.5091C32.4377 16.3103 31.3566 14.2414 30.829 12.2545L30.0148 12.6283C30.066 12.6639 30.3338 12.8399 30.3338 13.3715V19.3039C30.3338 19.8346 30.0669 20.2568 30.0148 20.3398L31.1472 19.8182C31.0951 19.7836 30.829 19.6058 30.829 19.076V14.6845Z" fill="white"/>
<rect x="46.1777" y="35.5654" width="91.8231" height="0.534884" fill="#E4002B"/>
<path d="M130.615 18.4496V10.0127H131.735V17.4781H135.647V18.4496H130.615Z" fill="#444444"/>
<path d="M122.057 18.4496L125.191 10.0127H126.373L129.465 18.4496H128.308L127.512 16.0866H124.041L123.207 18.4496H122.057ZM124.346 15.1401H127.194L125.776 11.1347L124.346 15.1401Z" fill="#444444"/>
<path d="M114.109 18.4496V10.0127H115.254L119.844 16.7259V10.0127H120.908V18.4496H119.763L115.167 11.7239V18.4496H114.109Z" fill="#444444"/>
<path d="M108.349 18.562C107.474 18.562 106.74 18.3782 106.147 18.0104C105.554 17.6427 105.106 17.135 104.803 16.4873C104.505 15.8395 104.355 15.0895 104.355 14.237C104.355 13.3845 104.505 12.6323 104.803 11.9804C105.106 11.3286 105.554 10.8187 106.147 10.451C106.74 10.0833 107.474 9.89941 108.349 9.89941C109.224 9.89941 109.955 10.0833 110.544 10.451C111.133 10.8187 111.577 11.3286 111.875 11.9804C112.178 12.6323 112.329 13.3845 112.329 14.237C112.329 15.0895 112.178 15.8395 111.875 16.4873C111.577 17.135 111.133 17.6427 110.544 18.0104C109.955 18.3782 109.224 18.562 108.349 18.562ZM108.349 17.6406C109.02 17.6406 109.564 17.4881 109.978 17.183C110.393 16.878 110.696 16.4685 110.886 15.9545C111.081 15.4363 111.179 14.8638 111.179 14.237C111.179 13.606 111.081 13.0335 110.886 12.5195C110.696 12.0013 110.393 11.5897 109.978 11.2847C109.564 10.9754 109.02 10.8208 108.349 10.8208C107.677 10.8208 107.132 10.9754 106.713 11.2847C106.298 11.5897 105.995 12.0013 105.805 12.5195C105.614 13.0335 105.519 13.606 105.519 14.237C105.519 14.8638 105.614 15.4363 105.805 15.9545C105.995 16.4685 106.298 16.878 106.713 17.183C107.132 17.4881 107.677 17.6406 108.349 17.6406Z" fill="#444444"/>
<path d="M101.457 18.4496V10.0127H102.577V18.4496H101.457Z" fill="#444444"/>
<path d="M96.7611 18.4496V10.9592H94.3789V10.0127H100.251V10.9592H97.8745V18.4496H96.7611Z" fill="#444444"/>
<path d="M87.3867 18.4496L90.5216 10.0127H91.7034L94.7947 18.4496H93.6378L92.8416 16.0866H89.3709L88.5374 18.4496H87.3867ZM89.6757 15.1401H92.5244L91.1063 11.1347L89.6757 15.1401Z" fill="#444444"/>
<path d="M79.4375 18.4496V10.0127H80.582L85.1723 16.7259V10.0127H86.2359V18.4496H85.0914L80.4949 11.7239V18.4496H79.4375Z" fill="#444444"/>
<path d="M71.7129 18.4496V10.0127H74.8788C75.364 10.0127 75.8035 10.09 76.1975 10.2446C76.5956 10.3992 76.9128 10.6416 77.1491 10.9717C77.3855 11.3018 77.5037 11.7302 77.5037 12.2567C77.5037 12.7916 77.3544 13.2471 77.0558 13.6232C76.7614 13.9993 76.3281 14.2542 75.7559 14.3879C76.071 14.4338 76.3302 14.5362 76.5334 14.695C76.7365 14.8538 76.9045 15.069 77.0372 15.3406C77.174 15.6081 77.2922 15.9403 77.3917 16.3373L77.9391 18.4496H76.7946L76.3157 16.5128C76.2327 16.1659 76.1332 15.8713 76.0171 15.629C75.9051 15.3824 75.7538 15.1965 75.563 15.0711C75.3723 14.9416 75.1173 14.8768 74.798 14.8768H72.8325V18.4496H71.7129ZM72.8325 13.9366H74.7358C75.0426 13.9366 75.3205 13.8781 75.5693 13.7611C75.8181 13.6441 76.015 13.4748 76.1602 13.2533C76.3094 13.0319 76.3841 12.7644 76.3841 12.451C76.3841 11.9788 76.2452 11.6111 75.9673 11.3478C75.6937 11.0846 75.2935 10.9529 74.7669 10.9529H72.8325V13.9366Z" fill="#444444"/>
<path d="M64.6211 18.4496V10.0127H69.964V10.9529H65.7407V13.642H69.6282V14.5697H65.7407V17.5094H69.964V18.4496H64.6211Z" fill="#444444"/>
<path d="M59.9252 18.4496V10.9592H57.543V10.0127H63.4146V10.9592H61.0386V18.4496H59.9252Z" fill="#444444"/>
<path d="M49.5332 18.4496V10.0127H50.6777L55.268 16.7259V10.0127H56.3316V18.4496H55.1871L50.5906 11.7239V18.4496H49.5332Z" fill="#444444"/>
<path d="M46.2109 18.4496V10.0127H47.3305V18.4496H46.2109Z" fill="#444444"/>
<path d="M134.788 34.065C134.191 34.065 133.652 33.973 133.171 33.7892C132.69 33.6053 132.307 33.317 132.021 32.9241C131.739 32.5313 131.598 32.0215 131.598 31.3947H132.723C132.723 31.8418 132.819 32.1929 133.01 32.4478C133.204 32.7027 133.462 32.8824 133.781 32.9868C134.1 33.0913 134.451 33.1435 134.832 33.1435C135.184 33.1435 135.506 33.0913 135.796 32.9868C136.091 32.8782 136.325 32.7173 136.499 32.5042C136.673 32.2869 136.76 32.009 136.76 31.6705C136.76 31.378 136.692 31.1377 136.555 30.9497C136.418 30.7616 136.19 30.5987 135.871 30.4608C135.556 30.3187 135.131 30.1787 134.596 30.0408C133.965 29.8736 133.447 29.6919 133.041 29.4955C132.634 29.2949 132.332 29.0462 132.133 28.7495C131.938 28.4529 131.84 28.0768 131.84 27.6213C131.84 27.1407 131.952 26.7375 132.176 26.4115C132.4 26.0814 132.721 25.8307 133.14 25.6593C133.559 25.488 134.057 25.4023 134.633 25.4023C135.172 25.4023 135.666 25.4901 136.113 25.6656C136.561 25.8411 136.918 26.1044 137.183 26.4554C137.453 26.8064 137.587 27.2431 137.587 27.7654H136.468C136.472 27.2891 136.298 26.9297 135.945 26.6873C135.593 26.4408 135.158 26.3175 134.639 26.3175C134.104 26.3175 133.688 26.4261 133.389 26.6434C133.095 26.8566 132.947 27.17 132.947 27.5837C132.947 27.8302 133.012 28.0371 133.14 28.2042C133.269 28.3672 133.489 28.5155 133.8 28.6493C134.115 28.783 134.552 28.923 135.112 29.0692C135.759 29.2447 136.283 29.4328 136.686 29.6334C137.092 29.8339 137.391 30.0909 137.581 30.4043C137.772 30.7178 137.867 31.1294 137.867 31.6392C137.867 32.1824 137.733 32.6337 137.463 32.9931C137.194 33.3483 136.827 33.6157 136.362 33.7954C135.898 33.9751 135.373 34.065 134.788 34.065Z" fill="#444444"/>
<path d="M124.496 33.9526V25.5156H127.662C128.147 25.5156 128.587 25.5929 128.981 25.7475C129.379 25.9022 129.696 26.1445 129.932 26.4747C130.169 26.8048 130.287 27.2331 130.287 27.7596C130.287 28.2945 130.138 28.75 129.839 29.1261C129.545 29.5022 129.111 29.7571 128.539 29.8908C128.854 29.9368 129.113 30.0392 129.317 30.1979C129.52 30.3567 129.688 30.5719 129.82 30.8436C129.957 31.111 130.075 31.4432 130.175 31.8402L130.722 33.9526H129.578L129.099 32.0157C129.016 31.6689 128.916 31.3743 128.8 31.1319C128.688 30.8854 128.537 30.6994 128.346 30.574C128.155 30.4445 127.9 30.3797 127.581 30.3797H125.616V33.9526H124.496ZM125.616 29.4395H127.519C127.826 29.4395 128.104 29.381 128.352 29.264C128.601 29.147 128.798 28.9777 128.943 28.7563C129.093 28.5348 129.167 28.2674 129.167 27.9539C129.167 27.4817 129.028 27.114 128.751 26.8507C128.477 26.5875 128.077 26.4559 127.55 26.4559H125.616V29.4395Z" fill="#444444"/>
<path d="M117.404 33.9526V25.5156H122.747V26.4559H118.524V29.1449H122.411V30.0726H118.524V33.0124H122.747V33.9526H117.404Z" fill="#444444"/>
<path d="M112.708 33.9526V26.4621H110.326V25.5156H116.198V26.4621H113.822V33.9526H112.708Z" fill="#444444"/>
<path d="M103.832 33.9526V25.5156H106.998C107.483 25.5156 107.923 25.5929 108.317 25.7475C108.715 25.9022 109.032 26.1445 109.268 26.4747C109.505 26.8048 109.623 27.2331 109.623 27.7596C109.623 28.2945 109.474 28.75 109.175 29.1261C108.881 29.5022 108.447 29.7571 107.875 29.8908C108.19 29.9368 108.449 30.0392 108.652 30.1979C108.856 30.3567 109.024 30.5719 109.156 30.8436C109.293 31.111 109.411 31.4432 109.511 31.8402L110.058 33.9526H108.914L108.435 32.0157C108.352 31.6689 108.252 31.3743 108.136 31.1319C108.024 30.8854 107.873 30.6994 107.682 30.574C107.491 30.4445 107.236 30.3797 106.917 30.3797H104.952V33.9526H103.832ZM104.952 29.4395H106.855C107.162 29.4395 107.44 29.381 107.688 29.264C107.937 29.147 108.134 28.9777 108.279 28.7563C108.429 28.5348 108.503 28.2674 108.503 27.9539C108.503 27.4817 108.364 27.114 108.086 26.8507C107.813 26.5875 107.413 26.4559 106.886 26.4559H104.952V29.4395Z" fill="#444444"/>
<path d="M95.2734 33.9526L98.4083 25.5156H99.5901L102.681 33.9526H101.524L100.728 31.5895H97.2576L96.4241 33.9526H95.2734ZM97.5624 30.643H100.411L98.993 26.6376L97.5624 30.643Z" fill="#444444"/>
<path d="M91.0823 34.0654C90.2986 34.0654 89.66 33.9275 89.1666 33.6517C88.6731 33.3717 88.3123 32.9873 88.0843 32.4984C87.8562 32.0053 87.7422 31.4453 87.7422 30.8185V25.5156H88.8742V30.6806C88.8742 31.5581 89.0629 32.185 89.4402 32.561C89.8217 32.933 90.3712 33.1189 91.0885 33.1189C91.81 33.1189 92.3595 32.933 92.7368 32.561C93.1142 32.185 93.3028 31.5581 93.3028 30.6806V25.5156H94.4349V30.8185C94.4349 31.4453 94.3208 32.0053 94.0928 32.4984C93.8647 32.9873 93.5039 33.3717 93.0105 33.6517C92.5212 33.9275 91.8785 34.0654 91.0823 34.0654Z" fill="#444444"/>
<path d="M85.3037 35.7887C84.7895 35.7887 84.3603 35.7386 84.0162 35.6383C83.6761 35.5422 83.3962 35.4043 83.1765 35.2246C82.9567 35.0449 82.7742 34.8318 82.6291 34.5852C82.484 34.3387 82.3471 34.067 82.2186 33.7703L83.0707 33.5196C83.1951 33.7453 83.3133 33.9375 83.4253 34.0963C83.5372 34.2593 83.6699 34.3909 83.8233 34.4912C83.9809 34.5957 84.182 34.6709 84.4267 34.7168C84.6755 34.767 84.9968 34.7921 85.3908 34.7921H85.7267V35.7887H85.3037ZM82.1377 34.065C81.2628 34.065 80.5288 33.8811 79.9359 33.5134C79.3429 33.1456 78.8951 32.6379 78.5924 31.9902C78.2938 31.3425 78.1445 30.5924 78.1445 29.7399C78.1445 28.8874 78.2938 28.1353 78.5924 27.4834C78.8951 26.8315 79.3429 26.3217 79.9359 25.9539C80.5288 25.5862 81.2628 25.4023 82.1377 25.4023C83.0127 25.4023 83.7446 25.5862 84.3334 25.9539C84.9222 26.3217 85.3659 26.8315 85.6645 27.4834C85.9672 28.1353 86.1185 28.8874 86.1185 29.7399C86.1185 30.5924 85.9672 31.3425 85.6645 31.9902C85.3659 32.6379 84.9222 33.1456 84.3334 33.5134C83.7446 33.8811 83.0127 34.065 82.1377 34.065ZM82.1377 33.1435C82.8095 33.1435 83.3527 32.991 83.7674 32.686C84.182 32.3809 84.4847 31.9714 84.6755 31.4574C84.8704 30.9392 84.9678 30.3667 84.9678 29.7399C84.9678 29.1089 84.8704 28.5364 84.6755 28.0224C84.4847 27.5043 84.182 27.0927 83.7674 26.7876C83.3527 26.4784 82.8095 26.3238 82.1377 26.3238C81.466 26.3238 80.9207 26.4784 80.5019 26.7876C80.0872 27.0927 79.7845 27.5043 79.5938 28.0224C79.403 28.5364 79.3077 29.1089 79.3077 29.7399C79.3077 30.3667 79.403 30.9392 79.5938 31.4574C79.7845 31.9714 80.0872 32.3809 80.5019 32.686C80.9207 32.991 81.466 33.1435 82.1377 33.1435Z" fill="#444444"/>
<path d="M69.8223 33.9526V25.5156H72.6399C73.5148 25.5156 74.2612 25.6828 74.8791 26.0171C75.4969 26.3472 75.9676 26.8278 76.291 27.4588C76.6145 28.0898 76.7762 28.8482 76.7762 29.7341C76.7762 30.6242 76.6124 31.3847 76.2848 32.0157C75.9614 32.6467 75.4907 33.1273 74.8729 33.4574C74.255 33.7875 73.5107 33.9526 72.6399 33.9526H69.8223ZM70.9419 33.0061H72.3911C73.1251 33.0061 73.7305 32.8891 74.2073 32.6551C74.6842 32.4169 75.0387 32.0554 75.2709 31.5707C75.5073 31.0818 75.6255 30.4675 75.6255 29.7278C75.6255 28.9924 75.5052 28.3844 75.2647 27.9038C75.0284 27.4191 74.6697 27.0576 74.1887 26.8194C73.7118 26.5812 73.1126 26.4621 72.3911 26.4621H70.9419V33.0061Z" fill="#444444"/>
<path d="M61.2637 33.9526L64.3985 25.5156H65.5803L68.6716 33.9526H67.5147L66.7186 31.5895H63.2478L62.4144 33.9526H61.2637ZM63.5526 30.643H66.4014L64.9832 26.6376L63.5526 30.643Z" fill="#444444"/>
<path d="M55.2188 33.9526V25.5156H60.5617V26.4559H56.3383V29.1449H60.2258V30.0726H56.3383V33.0124H60.5617V33.9526H55.2188Z" fill="#444444"/>
<path d="M46.2109 33.9526V25.5156H47.3305V29.0571H51.9084V25.5156H53.0156V33.9526H51.9084V30.035H47.3305V33.9526H46.2109Z" fill="#444444"/>
<rect x="46.1777" y="20.5889" width="89.7" height="0.534884" fill="#E4002B"/>
</svg>
